<?xml version="1.0" encoding="UTF-8"?>
<svg width="111px" height="35px" viewBox="0 0 111 35" version="1.1" xmlns="http://www.w3.org/2000/svg" xmlns:xlink="http://www.w3.org/1999/xlink">
    <!-- Generator: Sketch 52.5 (67469) - http://www.bohemiancoding.com/sketch -->
    <title>ESL_Logo_Stacked_RGB_POS</title>
    <desc>Created with Sketch.</desc>
    <g id="Symbols" stroke="none" stroke-width="1" fill="none" fill-rule="evenodd">
        <g id="logo/ESL-black" transform="translate(-1.000000, -1.000000)">
            <g id="ESL_Logo_Stacked_RGB_POS" transform="translate(1.000000, 1.000000)">
                <path d="M110.359863,30.9513383 L110.359863,24.4270822 L97.4105805,24.4270822 L97.4105805,2.92498964 L90.0930956,2.92498964 L90.0930956,24.4274787 C90.0930956,28.0303906 92.9597752,30.9513383 96.4957489,30.9513383 L110.359863,30.9513383 Z" id="Fill-5" fill="#FFFFFF"></path>

                <path d="M79.1133332,13.9656724 L72.4912136,13.9656724 L72.4912136,9.44884925 L86.1249663,9.44884925 L86.1249663,2.92498964 L73.4328947,2.92498964 C68.8715782,2.92498964 65.1737287,6.69284171 65.1737287,11.3405069 C65.1737287,15.988172 68.8715782,19.7560241 73.4328947,19.7560241 L80.1308936,19.7560241 L80.1308936,24.4270822 L66.4967518,24.4270822 L66.4967518,30.9513383 L79.1133332,30.9513383 C83.7182317,30.9513383 87.4503241,27.1466126 87.4483785,22.4549369 C87.4464329,17.7660367 83.7151187,13.9656724 79.1133332,13.9656724 Z" id="Fill-3" fill="#FFFFFF"></path>

                <path d="M40.2543618,24.4274787 C40.2543618,28.0303906 43.1210415,30.9513383 46.6570152,30.9513383 L62.2659635,30.9513383 L62.2659635,24.4270822 L47.5718468,24.4270822 L47.5718468,19.7564206 L61.3017132,19.7564206 L61.3017132,13.9660689 L47.5718468,13.9660689 L47.5718468,9.44924574 L62.2659635,9.44924574 L62.2659635,2.92498964 L46.6523457,2.92498964 C43.1187068,2.92498964 40.2543618,5.84395491 40.2543618,9.44409136 L40.2543618,24.4274787 Z" id="Fill-1" fill="#FFFFFF"></path>
                
                <path d="M0,17.1117499 C0,26.5621081 7.51905138,34.2231033 16.7938322,34.2231033 C26.068613,34.2231033 33.5876644,26.5621081 33.5876644,17.1117499 C33.5876644,7.66139171 26.068613,0 16.7938322,0 C7.51905138,0 0,7.66139171 0,17.1117499 Z" id="Fill-7" fill="#000000"></path>
                
                <path d="M4.79218593,23.6000024 L17.5706431,2.92498964 C20.6396675,3.06732984 23.4472003,4.23103034 25.6722138,6.09255464 L6.27669564,25.855242 C5.71363259,25.1570217 5.21594244,24.4017068 4.79218593,23.6000024 Z M8.25103517,27.8551416 L27.6352687,8.10434895 C29.4513124,10.3821886 30.5801624,13.250403 30.7027366,16.3830768 L10.4795508,29.3598242 C9.68729345,28.9316141 8.94173104,28.4272778 8.25103517,27.8551416 Z M13.7494412,30.6140435 L30.4039668,19.927427 C29.1614925,26.2720728 22.5405403,32.6072028 13.7494412,30.6140435 Z" id="Combined-Shape" fill="#FFFFFF"></path>
            </g>
        </g>
    </g>
</svg>